HIERARCHY
ROOT Hips
{
  OFFSET 279.157 85.6768 304.565
  CHANNELS 6 Xposition Yposition Zposition Zrotation Xrotation Yrotation
  JOINT LeftUpLeg
  {
    OFFSET 8.64259 1.95398 -2.38835
    CHANNELS 3 Zrotation Xrotation Yrotation
    JOINT LeftLeg
    {
      OFFSET 43.7702 0 0
      CHANNELS 3 Zrotation Xrotation Yrotation
      JOINT LeftFoot
      {
        OFFSET 40.6238 0 0
        CHANNELS 3 Zrotation Xrotation Yrotation
        JOINT LeftToeBase
        {
          OFFSET 12.7242 0 0
          CHANNELS 3 Zrotation Xrotation Yrotation
          End Site
          {
            OFFSET 0 0 0
          }
        }
      }
    }
  }
  JOINT RightUpLeg
  {
    OFFSET -8.2249 1.95398 -2.59336
    CHANNELS 3 Zrotation Xrotation Yrotation
    JOINT RightLeg
    {
      OFFSET 43.5653 0 0
      CHANNELS 3 Zrotation Xrotation Yrotation
      JOINT RightFoot
      {
        OFFSET 40.6238 0 0
        CHANNELS 3 Zrotation Xrotation Yrotation
        JOINT RightToeBase
        {
          OFFSET 12.7242 0 0
          CHANNELS 3 Zrotation Xrotation Yrotation
          End Site
          {
            OFFSET 0 0 0
          }
        }
      }
    }
  }
  JOINT Spine
  {
    OFFSET 0.165834 0.87714 6.61349
    CHANNELS 3 Zrotation Xrotation Yrotation
    JOINT Spine1
    {
      OFFSET 7.38963 1.71661e-005 0
      CHANNELS 3 Zrotation Xrotation Yrotation
      JOINT Spine2
      {
        OFFSET 11.9445 1.14441e-005 0
        CHANNELS 3 Zrotation Xrotation Yrotation
        JOINT Spine3
        {
          OFFSET 14.7254 4.19617e-005 0
          CHANNELS 3 Zrotation Xrotation Yrotation
          JOINT Spine4
          {
            OFFSET 10.9679 0 0
            CHANNELS 3 Zrotation Xrotation Yrotation
            JOINT RightShoulder
            {
              OFFSET 2.46616 -1.6653 3.69651
              CHANNELS 3 Zrotation Xrotation Yrotation
              JOINT RightArm
              {
                OFFSET 13.0012 0 0
                CHANNELS 3 Zrotation Xrotation Yrotation
                JOINT RightForeArm
                {
                  OFFSET 28.7848 1.52588e-005 0
                  CHANNELS 3 Zrotation Xrotation Yrotation
                  JOINT RightHand
                  {
                    OFFSET 26.5688 1.52588e-005 0
                    CHANNELS 3 Zrotation Xrotation Yrotation
                    End Site
                    {
                      OFFSET 0 0 0
                    }
                  }
                }
              }
            }
            JOINT LeftShoulder
            {
              OFFSET 2.38034 -1.29275 -3.7523
              CHANNELS 3 Zrotation Xrotation Yrotation
              JOINT LeftArm
              {
                OFFSET 16.3182 6.10351e-005 0
                CHANNELS 3 Zrotation Xrotation Yrotation
                JOINT LeftForeArm
                {
                  OFFSET 27.0901 0 0
                  CHANNELS 3 Zrotation Xrotation Yrotation
                  JOINT LeftHand
                  {
                    OFFSET 24.5451 1.52588e-005 0
                    CHANNELS 3 Zrotation Xrotation Yrotation
                    End Site
                    {
                      OFFSET 0 0 0
                    }
                  }
                }
              }
            }
            JOINT Neck
            {
              OFFSET 5.0226 -0.0266342 0
              CHANNELS 3 Zrotation Xrotation Yrotation
              JOINT Head
              {
                OFFSET 6.69364 2.86102e-005 0
                CHANNELS 3 Zrotation Xrotation Yrotation
                End Site
                {
                  OFFSET 0 0 0
                }
              }
            }
          }
        }
      }
    }
  }
}
MOTION
Frames:	17
Frame Time:	0.0416667
36.7938 59.2553 16.3023 -9.77327 -52.697 -14.8202 -76.8903 66.8647 15.0173 -127.653 17.3351 6.9726 94.2751 26.306 0.486045 39.0156 3.66733 14.1599 84.9157 73.5859 162.334 -126.13 -12.2181 -4.96194 93.8681 -25.8102 -5.49156 53.8371 -7.79965 6.06623 0.576645 13.5386 -90.0088 -0.204652 1.14642 0.0410596 -11.8751 1.14711 -0.00944316 -34.4139 1.08106 0.383746 -14.4013 1.08107 0.383754 94.3165 -3.01933 -110.158 -13.7804 10.2214 -35.7082 0.551977 -18.1635 -11.8984 -80.6903 -10.1398 5.86633 -85.2759 -11.4457 76.846 7.79971 -15.745 -67.4408 -0.486221 10.2842 -6.18346 63.6114 3.21249 0.706926 15.8442 -2.48527 -10.2197 -3.75061 0.251688 7.64195 
37.8866 57.0023 12.524 -13.5604 -56.501 -16.7336 -74.3685 64.9345 13.2975 -130.8 13.8293 7.46332 96.4583 30.1035 3.7518 42.8947 5.9477 18.7132 78.908 72.6338 166.672 -129.928 -14.3565 -5.48457 94.4421 -26.1282 -5.25524 51.1902 -6.8623 8.37144 0.426291 13.2606 -90.2415 0.353682 0.760451 -0.436219 -11.3171 0.740516 -0.469278 -33.8539 0.856393 -0.187499 -13.8413 0.856394 -0.187497 93.7396 2.20413 -117.385 -9.59577 10.0037 -34.3637 1.80702 -21.9948 -8.08752 -70.6002 -10.1745 7.94483 -88.9277 -22.0176 72.4958 17.2514 -15.7633 -60.6206 -2.19627 10.4445 -7.84314 57.591 3.50992 1.86647 -0.547475 0.116595 -0.578775 9.01909 0.225063 0.336059 
38.2886 55.0706 8.27275 -16.0149 -59.8785 -18.9191 -67.7034 63.8499 9.33861 -134.002 13.7607 8.01047 99.8224 30.3191 -0.21985 36.7537 2.1471 13.8835 73.2964 71.4361 170.227 -132.653 -17.0018 -5.94368 96.6776 -27.6994 -4.63942 47.6265 -5.89348 9.19129 0.178607 12.9876 -90.3584 0.898586 0.22156 -0.690128 -10.7725 0.19097 -0.699224 -33.3067 0.418716 -0.591649 -13.294 0.418724 -0.591644 90.8138 1.00103 -126.727 -17.6471 5.53239 -28.6531 5.06212 -22.2082 -5.43436 -65.3185 -8.89386 7.29096 -92.657 -31.819 69.0474 23.6792 -16.8304 -58.7974 -3.87304 13.9899 -5.18767 55.1823 2.30956 -0.00381792 -11.6675 0.173235 9.07453 17.7399 -1.40549 -6.82833 
38.4291 53.1511 4.0781 -17.6538 -63.1332 -20.9735 -63.6926 61.6873 7.00967 -136.175 15.4581 8.34342 100.684 32.2963 1.2479 32.6381 0.174647 9.85987 66.5987 69.8556 174.57 -135.13 -17.323 -6.38266 100.658 -28.735 -1.45364 44.0664 -5.01348 8.74501 0.0828308 12.9634 -90.3325 0.946824 0.0399726 -0.645887 -10.7243 0.0115104 -0.647027 -33.2583 0.232235 -0.604019 -13.2456 0.232238 -0.604021 89.8564 2.38433 -132.138 -20.1605 3.11136 -24.2222 5.53317 -20.8738 -4.53558 -62.2313 -9.01662 8.58978 -93.8055 -33.7567 67.7205 23.9648 -19.1166 -60.4805 -4.16362 18.745 -1.69718 49.8679 2.68846 1.45442 -10.3246 0.00332259 12.0895 17.8724 -2.2786 -9.40326 
38.49 51.3478 0.164517 -19.5967 -67.476 -23.0605 -61.6952 60.8986 7.10431 -137.885 14.7921 8.5524 105.257 32.4872 -3.97528 24.5855 -4.00775 6.1999 62.9101 68.1956 175.613 -137.417 -18.182 -6.84908 102.33 -29.3924 -0.302321 37.861 -3.55746 11.3793 0.063576 13.2607 -90.3368 0.351722 0.00143288 -0.653813 -11.3193 -0.02734 -0.653262 -33.8535 0.197866 -0.623166 -13.8408 0.197861 -0.623162 88.0749 -6.52075 -126.196 -29.8242 5.13902 -34.1957 9.89378 -27.7646 -0.726361 -55.0438 -8.90579 9.95966 -92.832 -30.0893 68.0006 21.2176 -21.0973 -62.2846 -1.73773 26.6722 -0.12713 32.2231 0.833055 -1.67396 0.015678 0.819817 10.0007 10.9475 -1.43381 -7.30247 
39.2636 49.8936 -3.47362 -6.97852 -74.3289 -12.6727 -68.3352 58.1242 10.0455 -137.991 15.8092 8.59035 106.294 32.7124 -5.2378 17.2428 -8.19677 5.12275 52.7489 70.1347 177.597 -140.128 -20.2458 -7.21721 102.794 -28.751 1.33833 31.4194 -1.99847 10.873 -0.496788 13.7401 -90.4378 -0.612582 -1.14896 -0.915332 -12.2833 -1.18813 -0.863898 -34.8182 -0.820773 -1.21832 -14.8056 -0.820771 -1.21833 97.4863 15.2452 -119.976 -6.5833 9.34499 -36.9483 5.00607 -28.7145 -2.71196 -46.7218 -5.5471 4.70551 -90.819 -24.1527 69.4247 17.6844 -22.2389 -63.7092 -0.836325 30.4454 -0.00143364 39.7582 3.6208 5.24589 13.5712 1.40703 4.29434 1.68293 0.191341 -2.31902 
38.2595 48.1893 -6.96304 -18.7919 -74.7555 -22.1653 -56.0769 58.8773 3.05783 -139.598 17.469 8.947 107.726 32.6683 -7.64217 11.2697 -10.6138 2.1278 54.9898 63.7516 179.908 -140.444 -18.4425 -7.73126 103.421 -30.2596 -0.241321 26.3132 -0.865607 11.4209 0.0765706 13.9106 -90.3921 -0.947997 0.0112025 -0.760115 -12.6192 -0.0222725 -0.759875 -35.1526 0.239115 -0.721617 -15.1399 0.239119 -0.721604 92.7782 1.99614 -120.58 -24.9197 9.27483 -31.7838 4.20608 -29.5629 -6.57744 -41.8202 -4.22663 2.39158 -88.8105 -17.2691 70.6641 12.0833 -23.3933 -65.717 2.82359 35.7657 -1.51506 32.825 3.99696 8.39916 26.0761 0.338473 -1.63284 -5.99625 0.838116 2.29158 
37.7314 47.1613 -9.75034 -24.4211 -75.9673 -26.9186 -49.9078 58.4381 -0.816788 -139.929 19.6948 9.17602 106.899 33.0855 -6.74107 4.846 -13.239 -0.495322 54.9817 60.3769 -178.486 -140.279 -18.0638 -8.05032 102.466 -30.5142 -1.72025 22.8441 -0.410708 13.5237 0.358727 14.0782 -90.36 -1.28154 0.585584 -0.659974 -12.9525 0.555974 -0.685119 -35.4881 0.75686 -0.453475 -15.4754 0.75686 -0.453475 95.0744 4.19963 -114.329 -18.5485 12.8683 -35.3192 -1.43722 -31.3944 -13.1752 -42.1888 -4.33075 2.24196 -88.632 -14.7786 69.8811 7.17678 -24.1256 -66.0229 9.32404 30.36 -7.99746 27.1205 3.02911 7.45841 32.6908 -1.12624 -5.90487 -8.17071 1.11565 5.7445 
37.6695 46.6797 -12.0478 -25.1942 -78.0121 -27.7967 -47.5905 56.6928 -3.16481 -139.793 21.3696 9.39216 101.848 31.9716 -2.77488 4.37243 -13.9334 0.300037 52.7102 59.0709 -177.366 -140.176 -18.9439 -8.30315 100.54 -29.5687 -2.39351 20.2189 0.130574 13.6811 0.333803 14.2346 -90.4053 -1.59451 0.520655 -0.749635 -13.2656 0.487153 -0.771831 -35.8005 0.721879 -0.558515 -15.7878 0.721869 -0.558515 96.3234 6.06768 -110.905 -15.5731 11.7904 -36.1887 -9.47575 -34.6613 -23.284 -46.6374 -4.89945 1.90013 -89.0321 -14.6319 68.8171 4.12845 -23.9567 -65.1357 14.8059 30.397 -17.2628 28.1239 2.94052 6.69777 36.2671 -1.51118 -6.58831 -7.75697 1.27085 5.81061 
37.7355 46.1892 -13.8246 -25.6217 -79.0264 -28.017 -44.7288 54.5112 -5.70067 -139.75 22.0295 9.65243 98.1799 30.4847 -0.352877 2.32578 -15.1967 0.310469 50.3404 57.0822 -176.153 -140.241 -20.5464 -8.67157 98.7656 -29.4474 -4.10125 15.6922 0.852668 14.786 0.340929 14.2711 -90.4228 -1.66739 0.528758 -0.782274 -13.3385 0.493823 -0.804814 -35.8733 0.739413 -0.587212 -15.8607 0.739421 -0.587208 95.6929 3.7036 -111.109 -19.5171 7.46071 -31.8543 -17.8473 -32.8436 -36.4206 -47.1598 -4.11324 -0.46902 -89.5376 -14.981 67.796 7.95697 -21.2213 -60.7685 18.1537 30.2273 -27.7163 33.3803 2.81441 4.61978 38.0687 -1.4697 -6.66239 -6.92369 1.49367 5.91294 
38.0495 46.2738 -15.2464 -27.5399 -80.294 -30.4085 -45.6986 52.953 -4.04437 -138.814 21.832 9.76 96.4113 29.1614 -0.058808 2.48619 -15.855 1.67793 47.8293 57.0203 -174.85 -139.897 -22.0383 -8.82735 95.6268 -27.4333 -4.7447 15.2766 1.25716 13.5133 0.217397 14.2081 -90.2234 -1.54213 0.353392 -0.408566 -13.2131 0.335072 -0.423731 -35.7484 0.459845 -0.283466 -15.7357 0.459844 -0.28347 93.5537 -0.503831 -115.116 -23.2967 0.1926 -26.9631 -26.1498 -32.5388 -45.9569 -52.553 -4.23035 -1.93363 -90.4305 -16.3246 66.4294 13.6101 -17.8795 -55.542 33.4603 41.2457 -45.8043 26.3266 2.19524 4.57785 37.1354 -1.94638 -8.64885 -5.31917 1.95307 6.92867 
38.1976 46.2232 -16.3415 -28.9942 -80.3091 -31.4901 -44.9015 51.5974 -4.60393 -137.882 19.8912 9.73568 96.9039 28.9321 -0.472284 1.89119 -15.1178 -0.325567 47.2151 55.6165 -174.328 -139.193 -21.8312 -8.8684 94.6092 -26.9352 -5.33299 14.6666 1.06362 14.7894 0.23981 14.0382 -90.3092 -1.20214 0.366722 -0.575799 -12.8732 0.341029 -0.591386 -35.4081 0.522817 -0.438967 -15.3954 0.52282 -0.438972 92.9622 -1.81908 -115.916 -25.5178 -8.00687 -25.418 -36.5954 -35.1546 -54.3424 -44.3669 -3.46271 -4.21247 -91.1261 -19.0451 66.3243 18.9891 -11.5199 -54.4504 37.524 42.5878 -53.2701 30.3734 2.66925 5.04962 38.7321 -1.20503 -6.07992 -5.56954 1.58235 5.6497 
38.3739 46.661 -17.286 -29.1721 -80.3522 -31.8707 -44.865 51.0612 -4.87419 -136.498 19.5834 9.66932 95.1832 27.5405 -0.221175 3.78853 -14.2683 0.265647 47.1776 55.5088 -173.983 -137.661 -21.1536 -8.70016 94.4461 -26.7435 -5.22611 13.9623 1.2056 14.8384 0.276342 13.8456 -90.2991 -0.816664 0.44241 -0.554456 -12.4877 0.417581 -0.5734 -35.0229 0.588589 -0.395862 -15.0102 0.588591 -0.395858 92.3125 -3.54249 -116.45 -26.6943 -15.8406 -26.1442 -36.7216 -33.3732 -54.7815 -55.6501 -6.79077 1.85287 -91.4607 -19.7623 65.9747 19.8698 -6.63454 -56.1123 41.1055 46.1566 -57.3158 27.9076 2.67698 5.82585 40.5745 -1.36802 -5.87908 -6.99238 1.37849 5.35961 
38.5551 47.7015 -17.873 -27.972 -79.7432 -30.7657 -45.96 51.113 -4.09996 -134.589 20.7777 9.53412 94.2396 27.9131 1.42839 2.45582 -15.2491 0.551227 47.8601 55.6342 -174.454 -135.529 -20.1858 -8.39294 94.5182 -26.2103 -4.34852 14.3048 1.24571 14.4002 0.260171 13.5676 -90.2659 -0.260769 0.421215 -0.494656 -11.9317 0.399038 -0.512723 -34.467 0.550403 -0.345212 -14.4544 0.550404 -0.345208 91.0487 -5.1971 -118.913 -26.72 -21.096 -28.0943 -36.6573 -38.5157 -52.57 -49.486 -5.56554 -0.210605 -93.4537 -22.9138 63.4236 20.1819 -3.33352 -56.5131 38.706 49.7721 -54.9859 28.2148 2.63948 5.59007 41.024 -1.1562 -5.4438 -6.50406 1.44373 4.39668 
38.7376 49.2264 -18.0852 -25.833 -78.5444 -28.2946 -46.5544 51.8335 -3.56505 -132.396 21.414 9.01543 93.9949 27.1513 0.621929 0.715147 -14.9632 -1.84175 49.2108 56.0714 -175.728 -133.184 -22.2869 -8.13335 93.3125 -25.8622 -5.25981 15.6256 0.943068 14.471 0.327865 13.3518 -90.2294 0.170919 0.568939 -0.419855 -11.5 0.54989 -0.444503 -34.0359 0.668807 -0.22946 -14.0233 0.668809 -0.229462 92.1348 -5.09592 -115.617 -23.6209 -19.1862 -37.5395 -27.3648 -42.1188 -44.2616 -55.4449 -8.52896 5.51475 -93.2831 -23.5645 64.113 17.756 -1.87946 -61.0256 28.561 50.9049 -45.8941 27.8091 3.38155 8.49067 43.3125 -1.71392 -6.18755 -7.22857 1.38337 4.67801 
38.899 50.5846 -18.1177 -24.5994 -77.1163 -26.9452 -47.2466 52.2775 -2.69971 -130.702 23.2073 8.62736 93.4766 27.0205 0.991419 1.19103 -15.4946 -0.38411 49.9714 56.3693 -176.287 -131.253 -25.0039 -7.92534 91.4625 -25.4125 -6.80392 17.3535 0.400628 15.2431 0.368536 13.0503 -90.2079 0.773845 0.657227 -0.378632 -10.897 0.639931 -0.40722 -33.4334 0.740629 -0.163603 -13.4207 0.740634 -0.163614 91.5966 -6.34754 -116.194 -18.1195 -15.954 -43.2741 -17.2179 -46.9285 -34.0563 -45.0616 -7.60713 7.25237 -93.7842 -26.0966 64.3624 12.8736 -0.0585139 -64.1248 23.5757 52.223 -40.3726 25.2109 4.04069 12.3489 44.3389 -1.7452 -5.07421 -7.21842 0.855629 3.98144 
39.1278 51.594 -18.053 -23.6103 -75.8889 -26.3118 -47.8276 52.1909 -1.79803 -129.301 24.382 8.32802 92.3694 25.8001 0.349461 6.211 -13.4012 1.49575 49.3347 56.9008 -175.693 -129.932 -26.2319 -7.67611 90.6796 -24.5327 -6.1629 16.7403 0.694493 14.5515 0.379503 12.7403 -90.1895 1.39396 0.685375 -0.348454 -10.2769 0.669381 -0.378278 -32.8134 0.758415 -0.126344 -12.8007 0.758409 -0.126353 90.3487 -8.30832 -118.21 -11.3228 -13.5324 -45.8198 -8.13026 -48.7486 -23.8545 -41.9728 -8.03503 10.2162 -94.6489 -28.6008 63.9313 8.9493 2.8137 -67.1735 14.4384 52.321 -30.4464 20.1688 3.19582 11.922 45.7852 -1.16593 -2.93459 -7.99164 0.376819 2.26625 
